<svg width="320" height="180" viewBox="0 0 320 180" fill="none" xmlns="http://www.w3.org/2000/svg">
<path d="M26 87.7131C26 72.4997 38.3329 60.1667 53.5463 60.1667H70.8611C77.3811 60.1667 82.6667 65.4523 82.6667 71.9723V89.2871C82.6667 104.501 70.3338 116.833 55.1204 116.833H41.7408C33.0474 116.833 26 109.786 26 101.093V87.7131Z" fill="url(#paint0_radial_6_10374)"/>
<path d="M75.3277 88.2046C75.3277 99.4541 65.9565 108.569 54.4022 108.569C42.848 108.569 33.4768 99.4488 33.4768 88.2046C33.4768 76.9604 42.848 67.8403 54.4022 67.8403C65.9565 67.8403 75.3277 76.9604 75.3277 88.2046Z" fill="#FFBF43"/>
<path d="M73.3788 88.2046C73.3788 98.4055 64.8808 106.676 54.3968 106.676C43.9128 106.676 35.4149 98.4055 35.4149 88.2046C35.4149 78.0036 43.9128 69.7278 54.3968 69.7278C64.8808 69.7278 73.3788 77.9982 73.3788 88.2046Z" fill="#F9FFE8"/>
<path d="M45.4408 75.401C46.1649 72.7069 50.4884 71.3034 52.6183 73.164C55.6479 75.8097 53.9867 86.5645 53.9867 86.5645C53.9867 86.5645 44.4131 79.2404 45.4461 75.401H45.4408Z" fill="#FFBF43"/>
<path d="M57.8045 72.9597C60.2485 71.5132 64.3591 73.4329 64.5614 76.213C64.8436 80.1654 55.499 87.1131 55.499 87.1131C55.499 87.1131 54.3223 75.0139 57.8099 72.9543L57.8045 72.9597Z" fill="#FFBF43"/>
<path d="M68.9913 79.7996C71.6962 80.703 72.8143 85.0049 70.7484 86.93C67.8093 89.6671 56.3402 87.1344 56.3402 87.1344C56.3402 87.1344 65.1364 78.509 68.9913 79.7996Z" fill="#FFBF43"/>
<path d="M70.5087 91.9796C71.8026 94.464 69.529 98.3088 66.6697 98.2873C62.6018 98.2658 56.1804 88.6725 56.1804 88.6725C56.1804 88.6725 68.6611 88.4413 70.5087 91.9796Z" fill="#FFBF43"/>
<path d="M62.5911 101.772C61.5901 104.38 57.1388 105.353 55.2167 103.288C52.4798 100.358 55.2539 89.8179 55.2539 89.8179C55.2539 89.8179 64.0128 98.0507 62.5858 101.772H62.5911Z" fill="#FFBF43"/>
<path d="M51.3405 103.804C48.9072 105.267 44.7807 103.374 44.5624 100.6C44.2536 96.6525 53.5449 89.635 53.5449 89.635C53.5449 89.635 54.8121 101.723 51.3405 103.81V103.804Z" fill="#FFBF43"/>
<path d="M40.1003 96.4965C37.3901 95.6092 36.24 91.3181 38.2899 89.3768C41.2078 86.6182 52.6928 89.0703 52.6928 89.0703C52.6928 89.0703 43.9606 97.7548 40.095 96.4965H40.1003Z" fill="#FFBF43"/>
<path d="M38.7479 84.521C37.4913 82.1819 39.5998 78.5145 42.31 78.4983C46.165 78.4768 52.3574 87.4894 52.3574 87.4894C52.3574 87.4894 40.5369 87.8496 38.7479 84.5157V84.521Z" fill="#FFBF43"/>
<path d="M100.469 69.4431H111.363C116.444 69.4431 120.171 69.801 122.546 70.5168C125.252 71.3549 127.338 72.4286 128.805 73.738C130.289 75.0475 131.45 76.4005 132.288 77.7973C133.999 80.6431 134.854 83.873 134.854 87.4871C134.854 93.1787 132.812 97.7879 128.726 101.315C125.828 103.846 122.415 105.409 118.486 106.002C116.304 106.334 113.249 106.5 109.32 106.5H100.469V69.4431ZM113.825 104.326C114.104 104.344 114.357 104.353 114.584 104.353H115.187C119.918 104.353 123.96 102.877 127.312 99.9267C130.856 96.8189 132.628 92.6899 132.628 87.5394C132.628 84.292 131.851 81.3676 130.297 78.7662C128.045 74.9776 124.484 72.6818 119.613 71.8786C118.024 71.6167 116.095 71.4683 113.825 71.4334V104.326ZM141.69 78.5305H152.951V86.7538C154.155 83.7683 155.447 81.5772 156.827 80.1804C158.223 78.7662 159.62 78.0592 161.017 78.0592C161.802 78.0592 162.422 78.2687 162.876 78.6877C163.348 79.0892 163.583 79.5432 163.583 80.0495C163.583 80.5558 163.513 80.9574 163.374 81.2542C163.234 81.551 163.051 81.8041 162.824 82.0136C162.352 82.4501 161.907 82.6683 161.488 82.6683C160.825 82.6683 160.336 82.5985 160.022 82.4588C159.48 82.2144 159 82.0922 158.581 82.0922C158.162 82.0922 157.63 82.4327 156.984 83.1136C156.338 83.777 155.718 84.7023 155.124 85.8896C153.675 88.7878 152.951 91.9304 152.951 95.3175V106.5H141.69V78.5305ZM164.578 92.3581C164.578 90.2631 164.954 88.36 165.705 86.649C166.473 84.9206 167.52 83.4191 168.847 82.1446C171.71 79.421 175.307 78.0592 179.637 78.0592C184.054 78.0592 187.651 79.4733 190.427 82.3017C193.08 84.9729 194.407 88.3513 194.407 92.4367C194.407 96.5396 193.045 99.9703 190.322 102.729C187.511 105.575 183.914 106.998 179.532 106.998C175.255 106.998 171.71 105.645 168.9 102.938C166.019 100.145 164.578 96.6182 164.578 92.3581ZM178.799 105.033C178.938 105.051 179.078 105.06 179.218 105.06H179.584C183.111 105.06 186.071 103.968 188.462 101.786C191.011 99.4291 192.286 96.3388 192.286 92.5153C192.286 88.779 191.09 85.7499 188.698 83.4278C186.341 81.1232 183.295 79.9709 179.558 79.9709H179.165C179.043 79.9709 178.921 79.9797 178.799 79.9971V105.033ZM228.138 70.124C228.138 70.9271 227.291 71.3287 225.598 71.3287H219.522V106.5H206.114V71.3287H202.185C200.841 71.3287 199.916 71.3898 199.409 71.512C198.746 71.6517 198.266 71.7215 197.969 71.7215C197.078 71.7215 196.633 71.3723 196.633 70.674C196.633 69.8534 197.497 69.4431 199.226 69.4431H222.586C223.791 69.4431 224.681 69.3907 225.257 69.286C225.956 69.1637 226.48 69.1026 226.829 69.1026C227.702 69.1026 228.138 69.4431 228.138 70.124ZM260.141 69.155C260.857 69.155 261.214 69.5304 261.214 70.2811C261.214 70.6652 261.092 71.1104 260.848 71.6167C260.621 72.1056 260.438 72.5072 260.298 72.8214L246.077 107.94L228.845 69.4431H243.144L251.472 89.0322L257.312 74.4189C257.941 72.8476 258.351 71.7128 258.543 71.0144C258.735 70.316 258.945 69.8359 259.172 69.574C259.399 69.2947 259.722 69.155 260.141 69.155Z" fill="#EEEEEE"/>
<defs>
<radialGradient id="paint0_radial_6_10374" cx="0" cy="0" r="1" gradientUnits="userSpaceOnUse" gradientTransform="translate(42.7245 71.5788) rotate(49.4258) scale(45.0733)">
<stop stop-color="#376A80"/>
<stop offset="1" stop-color="#013145"/>
</radialGradient>
</defs>
</svg>
