<svg width="108" height="108" viewBox="0 0 108 108" fill="none" xmlns="http://www.w3.org/2000/svg">
<path d="M18 53C18 33.67 33.67 18 53 18H75C83.2843 18 90 24.7157 90 33V55C90 74.33 74.33 90 55 90H38C26.9543 90 18 81.0457 18 70V53Z" fill="url(#paint0_radial_6_10570)"/>
<path d="M80.6752 53.6246C80.6752 67.9181 68.7683 79.4992 54.0876 79.4992C39.4069 79.4992 27.5 67.9113 27.5 53.6246C27.5 39.3379 39.4069 27.75 54.0876 27.75C68.7683 27.75 80.6752 39.3379 80.6752 53.6246Z" fill="#FFBF43"/>
<path d="M78.199 53.6246C78.199 66.5858 67.4016 77.0941 54.0807 77.0941C40.7599 77.0941 29.9625 66.5858 29.9625 53.6246C29.9625 40.6634 40.7599 30.1482 54.0807 30.1482C67.4016 30.1482 78.199 40.6565 78.199 53.6246Z" fill="#F9FFE8"/>
<path d="M42.7015 37.3564C43.6216 33.9334 49.115 32.1501 51.8211 34.5141C55.6706 37.8757 53.5598 51.5406 53.5598 51.5406C53.5598 51.5406 41.3958 42.2348 42.7082 37.3564H42.7015Z" fill="#FFBF43"/>
<path d="M58.4107 34.2547C61.516 32.4167 66.7388 34.8559 66.9959 38.3883C67.3545 43.4102 55.4814 52.2378 55.4814 52.2378C55.4814 52.2378 53.9863 36.8647 58.4175 34.2478L58.4107 34.2547Z" fill="#FFBF43"/>
<path d="M72.6245 42.9453C76.0613 44.0932 77.482 49.5591 74.8571 52.0052C71.1226 55.4829 56.5502 52.2648 56.5502 52.2648C56.5502 52.2648 67.7264 41.3055 72.6245 42.9453Z" fill="#FFBF43"/>
<path d="M74.5525 58.421C76.1965 61.5776 73.3077 66.4628 69.6747 66.4355C64.5061 66.4082 56.3471 54.219 56.3471 54.219C56.3471 54.219 72.2049 53.9252 74.5525 58.421Z" fill="#FFBF43"/>
<path d="M64.4925 70.8629C63.2206 74.1767 57.5649 75.4133 55.1226 72.7897C51.6452 69.066 55.17 55.6743 55.17 55.6743C55.17 55.6743 66.2988 66.1348 64.4858 70.8629H64.4925Z" fill="#FFBF43"/>
<path d="M50.1976 73.4457C47.1059 75.3041 41.8628 72.8991 41.5854 69.3736C41.193 64.3585 52.9985 55.4421 52.9985 55.4421C52.9985 55.4421 54.6086 70.8015 50.1976 73.4525V73.4457Z" fill="#FFBF43"/>
<path d="M35.9159 64.1603C32.4724 63.0329 31.0111 57.5806 33.6157 55.1141C37.3231 51.609 51.9159 54.7246 51.9159 54.7246C51.9159 54.7246 40.8208 65.7591 35.9092 64.1603H35.9159Z" fill="#FFBF43"/>
<path d="M34.1976 48.9444C32.601 45.9723 35.2801 41.3125 38.7236 41.292C43.6217 41.2647 51.4897 52.7159 51.4897 52.7159C51.4897 52.7159 36.4708 53.1737 34.1976 48.9376V48.9444Z" fill="#FFBF43"/>
<defs>
<radialGradient id="paint0_radial_6_10570" cx="0" cy="0" r="1" gradientUnits="userSpaceOnUse" gradientTransform="translate(39.25 32.5) rotate(49.4258) scale(57.2696)">
<stop stop-color="#376A80"/>
<stop offset="1" stop-color="#013145"/>
</radialGradient>
</defs>
</svg>
